<?xml version="1.0" encoding="UTF-8"?>
<svg width="24px" height="24px" viewBox="0 0 24 24" version="1.1" xmlns="http://www.w3.org/2000/svg" xmlns:xlink="http://www.w3.org/1999/xlink">
    <title>ic-logout</title>
    <g id="Page-1" stroke="none" stroke-width="1" fill="none" fill-rule="evenodd">
        <g id="iPhone-13-home" transform="translate(-350.000000, -61.000000)">
            <g id="title-bar" transform="translate(0.000000, 49.000000)">
                <g id="ic-logout" transform="translate(350.000000, 11.999750)">
                    <g id="Group-3"></g>
                    <path d="M4.928,21.539 C4.274,21.539 3.647,21.28 3.186,20.818 C2.724,20.356 2.464,19.73 2.464,19.078 L2.464,4.924 C2.464,4.271 2.724,3.644 3.186,3.183 C3.647,2.722 4.274,2.462 4.928,2.462 C8.94019748,2.462 11.9493456,2.462 13.9554443,2.462 C14.9609012,2.462 16.4690864,2.462 18.48,2.462 C18.92,2.462 19.327,2.227 19.547,1.847 C19.767,1.466 19.767,0.997 19.547,0.616 C19.327,0.235 18.92,0 18.48,0 L4.928,0 C3.621,0 2.367,0.519 1.443,1.442 C0.519,2.366 0,3.618 0,4.924 L0,19.078 C0,20.383 0.519,21.635 1.443,22.559 C2.367,23.482 3.621,24 4.928,24 L18.48,24 C18.92,24 19.327,23.766 19.547,23.385 C19.767,23.004 19.767,22.535 19.547,22.154 C19.327,21.773 18.92,21.539 18.48,21.539 L4.928,21.539 Z" id="Fill-1" fill="#7C7C7C"></path>
                    <path d="M23.6257,11.1327 L19.0367,6.5297 C18.7257,6.2187 18.2717,6.0967 17.8467,6.2107 C17.4207,6.3247 17.0887,6.6567 16.9747,7.0817 C16.8607,7.5067 16.9817,7.9607 17.2937,8.2717 L19.7767,10.7697 L11.0287,10.7697 C10.5887,10.7697 10.1817,11.0047 9.9617,11.3847 C9.7427,11.7657 9.7427,12.2357 9.9617,12.6157 C10.1817,12.9967 10.5887,13.2317 11.0287,13.2317 L19.7767,13.2317 L17.2757,15.7297 C16.9637,16.0447 16.8437,16.5007 16.9607,16.9267 C17.0777,17.3537 17.4137,17.6857 17.8417,17.7987 C18.2697,17.9097 18.7257,17.7857 19.0367,17.4717 L23.6387,12.8747 C23.8697,12.6437 23.9997,12.3297 23.9997,12.0037 C23.9997,11.6767 23.8697,11.3637 23.6387,11.1327 L23.6257,11.1327 Z" id="Fill-4" fill="#7C7C7C"></path>
                </g>
            </g>
        </g>
    </g>
</svg>